<svg xmlns="http://www.w3.org/2000/svg" viewBox="0 0 4769.05 1755.27"><defs><style>.cls-1{fill:#20284f;}</style></defs><title>Site Enactus UFAL - Ativo 2</title><g id="Camada_2" data-name="Camada 2"><g id="Camada_1-2" data-name="Camada 1"><path class="cls-1" d="M4769.05,1310V13.45C4216.38,202.68,3767.11,234.54,3461.3,228.6c-254.83-4.94-517.27-38.2-722.82-64.25C2321.79,111.53,2150.81,62.22,1736.23,26.49,1609.64,15.58,1427.53-.12,1225.79,0,941,.17,518.17,31.9,0,190.43V1755.27c151.3-71.55,366.5-168.71,629.66-272,288.26-113.12,614.54-241.17,941.9-317.35,0,0,897.39-208.85,2147.42,48.73,69.11,14.24,290,62,591.89,84.69A4424.57,4424.57,0,0,0,4769.05,1310Z"/></g></g></svg>